# xmcd
#
# Track frame offsets: 
#        150
#        23080
#        36748
#        67546
#        85050
#        104401
#        146583
#        170665
#        185520
#        195191
#        208229
#        222583
#
# Disc length: 3156 seconds
#
# Revision: 0
# Processed by: cddbd v1.5.2PL0 Copyright (c) Steve Scherf et al.
# Submitted via: ExactAudioCopy v0.95b4
#
DISCID=ad0c520c
DTITLE=Kasa Chorych - Ryszard Skiba Skibiñski 1951 - 1983
DYEAR=2007
DGENRE=Blues
TTITLE0=Lutek pogromca lwów
TTITLE1=Boogie dziadka Skiby
TTITLE2=Jak nas gonili tacy jedni
TTITLE3=MPO Blues
TTITLE4=Szalona Baska
TTITLE5=Blues bez pieniêdzy
TTITLE6=Jak siê czujesz
TTITLE7=Zgni³a porzeczka
TTITLE8=Kasa Chorych Blues
TTITLE9=MPO Blues
TTITLE10=Droga do sklepu monopolowego
TTITLE11=Mundial Blues
EXTD=
EXTT0=
EXTT1=
EXTT2=
EXTT3=
EXTT4=
EXTT5=
EXTT6=
EXTT7=
EXTT8=
EXTT9=
EXTT10=
EXTT11=
PLAYORDER=
